# xmcd
#
# Track frame offsets: 
#        150
#        20922
#        42635
#        42962
#        58242
#        81365
#        93967
#        108285
#        113620
#        135762
#        157922
#        201785
#        221315
#        237640
#        257957
#
# Disc length: 3531 seconds
#
# Revision: 1
# Processed by: cddbd v1.5.1PL0 Copyright (c) Steve Scherf et al.
# Submitted via: ExactAudioCopy v0.95a5
#
DISCID=ce0dc90f
DTITLE=張雨生 - 未來-月光面
DYEAR=2001
DGENRE=Pop
TTITLE0=我想把整片天空打開
TTITLE1=我就要轉彎
TTITLE2=OK!
TTITLE3=魔幻台北
TTITLE4=心底的中國
TTITLE5=無知的歲月
TTITLE6=冰點
TTITLE7=好了!來吧!
TTITLE8=動物的悲歌
TTITLE9=靈光
TTITLE10=永公街的街長
TTITLE11=不想失去你
TTITLE12=後知後覺
TTITLE13=跟的上我吧
TTITLE14=天籟 PS:謝謝小K!
EXTD=未來-月光面
EXTT0=
EXTT1=
EXTT2=
EXTT3=
EXTT4=
EXTT5=
EXTT6=
EXTT7=
EXTT8=
EXTT9=
EXTT10=
EXTT11=
EXTT12=
EXTT13=
EXTT14=
PLAYORDER=
